<svg width="18" height="18" viewBox="0 0 18 18" fill="none" xmlns="http://www.w3.org/2000/svg">
<path d="M5.62504 6.37501H12.375M5.62504 9.37501H9.75004M16.5 7.87501C16.5 7.29751 16.4895 6.73276 16.47 6.18751C16.4078 4.40776 16.3763 3.51751 15.6525 2.78776C14.9288 2.05876 14.013 2.01976 12.183 1.94101C11.1226 1.89649 10.0614 1.87448 9.00004 1.87501C7.89004 1.87501 6.82129 1.89751 5.81704 1.94101C3.98704 2.01976 3.07204 2.05876 2.34754 2.78851C1.62379 3.51751 1.59229 4.40776 1.53004 6.18751C1.49048 7.31216 1.49048 8.43786 1.53004 9.56251C1.59229 11.3423 1.62379 12.2325 2.34754 12.9623C3.07129 13.6913 3.98704 13.7303 5.81704 13.809C6.36804 13.8325 6.93679 13.85 7.52329 13.8615C8.07829 13.872 8.35654 13.8765 8.60104 13.9703C8.84554 14.064 9.05104 14.2388 9.46204 14.5913L11.0963 15.9938C11.1758 16.0619 11.2732 16.1058 11.377 16.1203C11.4807 16.1347 11.5864 16.1191 11.6816 16.0753C11.7767 16.0315 11.8573 15.9613 11.9137 15.8731C11.9702 15.7848 12.0001 15.6823 12 15.5775V13.8165L12.183 13.809C14.013 13.7303 14.928 13.6913 15.6525 12.9615C16.3763 12.2325 16.4078 11.3423 16.47 9.56251C16.4895 9.01726 16.5 8.45251 16.5 7.87501Z" stroke="#3F3F3F" stroke-width="1.125" stroke-linecap="round" stroke-linejoin="round"/>
</svg>
