<svg width="20" height="20" viewBox="0 0 20 20" fill="none" xmlns="http://www.w3.org/2000/svg">
<path d="M12.9327 17.0243L9.6191 13.6133L10.2785 12.9345L12.9327 15.6668L18.2309 10.2138L18.8893 10.8916L12.9327 17.0243ZM17.1236 8.19097H16.1923V3.98812C16.1923 3.84048 16.1327 3.70499 16.0134 3.58164C15.8942 3.45828 15.7626 3.39693 15.6186 3.39757H13.3983V5.53543H5.94788V3.39757H3.72765C3.58423 3.39757 3.4526 3.45892 3.33277 3.58164C3.21295 3.70435 3.15334 3.83984 3.15396 3.98812V16.2295C3.15396 16.3765 3.21357 16.5117 3.33277 16.635C3.45198 16.7584 3.5833 16.8197 3.72672 16.8191H8.7418V17.7778H3.72765C3.31042 17.7778 2.95528 17.627 2.66223 17.3253C2.36918 17.0236 2.22266 16.6584 2.22266 16.2295V3.98716C2.22266 3.55895 2.36918 3.19369 2.66223 2.89139C2.95528 2.58972 3.31042 2.43889 3.72765 2.43889H8.04519C8.13211 2.06436 8.32551 1.7496 8.62539 1.49459C8.92527 1.23894 9.27451 1.11111 9.67311 1.11111C10.0792 1.11111 10.4312 1.23894 10.7292 1.49459C11.0272 1.74896 11.2197 2.06372 11.3066 2.43889H15.6186C16.0358 2.43889 16.3909 2.58972 16.684 2.89139C16.977 3.19305 17.1236 3.55863 17.1236 3.98812V8.19097ZM9.67311 3.61807C9.88917 3.61807 10.0686 3.54489 10.2114 3.39853C10.3542 3.25153 10.4256 3.06682 10.4256 2.84441C10.4256 2.622 10.3542 2.43729 10.2114 2.29029C10.0686 2.14329 9.88917 2.0698 9.67311 2.0698C9.45705 2.0698 9.27762 2.14329 9.13482 2.29029C8.99202 2.43729 8.92062 2.622 8.92062 2.84441C8.92062 3.06682 8.99202 3.25153 9.13482 3.39853C9.27762 3.54552 9.45705 3.61807 9.67311 3.61807Z" fill="#3F3F3F"/>
</svg>
