<svg width="18" height="18" viewBox="0 0 18 18" fill="none" xmlns="http://www.w3.org/2000/svg">
<path d="M9 5.49975C9 4.125 7.875 3 6.50025 3H1.5V12H6.531C9 12 9 14.5005 9 14.5005M9 5.49975C9 4.12425 10.125 3 11.4998 3H16.5V12H11.4998C9 12 9 14.5005 9 14.5005M9 5.49975V14.5005M10.4062 15.3435C10.5627 15.0194 10.8065 14.7454 11.1102 14.5522C11.4139 14.359 11.7654 14.2544 12.1252 14.25H15.75M7.59375 15.3435C7.44012 15.0172 7.19702 14.7412 6.89271 14.5476C6.58841 14.3541 6.2354 14.2509 5.87475 14.25H2.25" stroke="#3F3F3F" stroke-width="1.125" stroke-miterlimit="10" stroke-linecap="round" stroke-linejoin="round"/>
</svg>
