<svg width="18" height="18" viewBox="0 0 18 18" fill="none" xmlns="http://www.w3.org/2000/svg">
<path d="M15.289 1.00114C15.7428 1.00114 16.178 1.1814 16.4989 1.50228C16.8197 1.82315 17 2.25835 17 2.71213V4.30448C16.9999 4.82986 16.8547 5.34499 16.5803 5.79304C16.306 6.2411 15.9132 6.60465 15.4453 6.84359L10.6682 9.2846C11.5086 9.66568 12.1931 10.3231 12.6078 11.1474C13.0225 11.9717 13.1423 12.9132 12.9474 13.8151C12.7524 14.7171 12.2544 15.525 11.5363 16.1045C10.8182 16.684 9.92332 17 9.00057 17C8.07782 17 7.18291 16.684 6.46481 16.1045C5.7467 15.525 5.24873 14.7171 5.05378 13.8151C4.85884 12.9132 4.97868 11.9717 5.39337 11.1474C5.80805 10.3231 6.49255 9.66568 7.33293 9.2846L2.55472 6.84359C2.11891 6.62103 1.74771 6.29006 1.47683 5.88254C1.20594 5.47501 1.04448 5.00463 1.00798 4.51665L1 4.30448V2.71099C1 2.2572 1.18026 1.82201 1.50114 1.50114C1.82201 1.18026 2.2572 1 2.71099 1L15.289 1.00114ZM9.00057 10.0671C8.61341 10.0562 8.22799 10.1231 7.86712 10.2637C7.50624 10.4044 7.17724 10.616 6.89955 10.886C6.62186 11.156 6.40112 11.4789 6.2504 11.8357C6.09967 12.1925 6.02201 12.5759 6.02201 12.9632C6.02201 13.3505 6.09967 13.7339 6.2504 14.0907C6.40112 14.4475 6.62186 14.7704 6.89955 15.0404C7.17724 15.3104 7.50624 15.522 7.86712 15.6627C8.22799 15.8033 8.61341 15.8702 9.00057 15.8593C9.75887 15.8443 10.481 15.5325 11.012 14.9909C11.5429 14.4493 11.8404 13.7211 11.8404 12.9626C11.8404 12.2042 11.5429 11.476 11.012 10.9344C10.481 10.3928 9.75887 10.081 9.00057 10.0659M11.8956 2.14066H6.1033V7.37399L8.74164 8.72225C8.82198 8.7633 8.91092 8.78471 9.00114 8.78471C9.09136 8.78471 9.1803 8.7633 9.26064 8.72225L11.8967 7.37399L11.8956 2.14066ZM4.9615 2.14066H2.71099C2.55973 2.14066 2.41466 2.20075 2.3077 2.3077C2.20075 2.41466 2.14066 2.55973 2.14066 2.71099V4.30334L2.14864 4.46304C2.17567 4.74973 2.27463 5.02497 2.43633 5.26324C2.59804 5.50151 2.81727 5.69512 3.07371 5.82612L4.9615 6.79112V2.14066ZM15.289 2.14066H13.0362V6.79112L14.9263 5.82612C15.207 5.68284 15.4426 5.46483 15.6073 5.19613C15.7719 4.92743 15.8591 4.61848 15.8593 4.30334V2.71099C15.8593 2.55973 15.7993 2.41466 15.6923 2.3077C15.5853 2.20075 15.4403 2.14066 15.289 2.14066Z" fill="#3F3F3F"/>
</svg>
