<svg width="18" height="18" viewBox="0 0 18 18" fill="none" xmlns="http://www.w3.org/2000/svg">
<path d="M13.9752 2.70085C14.3333 2.70085 14.6766 2.84308 14.9298 3.09626C15.183 3.34943 15.3252 3.69281 15.3252 4.05085V5.30725C15.3251 5.72178 15.2106 6.12823 14.9941 6.48175C14.7776 6.83527 14.4677 7.12212 14.0985 7.31065L10.3293 9.23665C10.9924 9.53734 11.5325 10.0561 11.8597 10.7065C12.1869 11.3569 12.2814 12.0997 12.1276 12.8113C11.9738 13.523 11.5809 14.1605 11.0143 14.6177C10.4477 15.0749 9.74159 15.3242 9.01353 15.3242C8.28546 15.3242 7.57936 15.0749 7.01276 14.6177C6.44616 14.1605 6.05326 13.523 5.89944 12.8113C5.74562 12.0997 5.84018 11.3569 6.16738 10.7065C6.49457 10.0561 7.03466 9.53734 7.69773 9.23665L3.92763 7.31065C3.58377 7.13505 3.29089 6.87391 3.07715 6.55236C2.86342 6.23082 2.73603 5.85968 2.70723 5.47465L2.70093 5.30725V4.04995C2.70093 3.69191 2.84316 3.34853 3.09633 3.09536C3.34951 2.84218 3.69289 2.69995 4.05093 2.69995L13.9752 2.70085ZM9.01353 9.85405C8.70805 9.84548 8.40395 9.89824 8.11921 10.0092C7.83448 10.1202 7.57488 10.2871 7.35578 10.5002C7.13668 10.7132 6.96251 10.968 6.84359 11.2495C6.72466 11.5311 6.66339 11.8335 6.66339 12.1392C6.66339 12.4448 6.72466 12.7472 6.84359 13.0288C6.96251 13.3103 7.13668 13.5651 7.35578 13.7781C7.57488 13.9912 7.83448 14.1581 8.11921 14.2691C8.40395 14.3801 8.70805 14.4328 9.01353 14.4243C9.61184 14.4124 10.1816 14.1664 10.6006 13.739C11.0195 13.3117 11.2542 12.7371 11.2542 12.1387C11.2542 11.5403 11.0195 10.9657 10.6006 10.5384C10.1816 10.111 9.61184 9.86502 9.01353 9.85315M11.2977 3.59995H6.72753V7.72915L8.80923 8.79295C8.87262 8.82534 8.94279 8.84223 9.01398 8.84223C9.08516 8.84223 9.15534 8.82534 9.21873 8.79295L11.2986 7.72915L11.2977 3.59995ZM5.82663 3.59995H4.05093C3.93158 3.59995 3.81712 3.64736 3.73273 3.73175C3.64834 3.81614 3.60093 3.9306 3.60093 4.04995V5.30635L3.60723 5.43235C3.62856 5.65856 3.70663 5.87572 3.83422 6.06373C3.96181 6.25173 4.13479 6.40449 4.33713 6.50785L5.82663 7.26925V3.59995ZM13.9752 3.59995H12.1977V7.26925L13.689 6.50785C13.9105 6.3948 14.0964 6.22279 14.2263 6.01077C14.3562 5.79876 14.4251 5.555 14.4252 5.30635V4.04995C14.4252 3.9306 14.3778 3.81614 14.2934 3.73175C14.209 3.64736 14.0946 3.59995 13.9752 3.59995Z" fill="#3F3F3F"/>
</svg>
