<svg width="18" height="18" viewBox="0 0 18 18" fill="none" xmlns="http://www.w3.org/2000/svg">
<path d="M11.9025 11.1397C11.9019 11.2611 11.8535 11.3773 11.7678 11.4632C11.6821 11.5491 11.566 11.5978 11.4446 11.5987H6.55423C6.4325 11.5987 6.31575 11.5504 6.22967 11.4643C6.14359 11.3782 6.09524 11.2614 6.09524 11.1397C6.09524 11.018 6.14359 10.9012 6.22967 10.8151C6.31575 10.7291 6.4325 10.6807 6.55423 10.6807H11.4446C11.5662 10.6813 11.6826 10.7298 11.7685 10.8158C11.8545 10.9018 11.903 11.0182 11.9036 11.1397M11.4457 8.23608H6.55423C6.43658 8.24191 6.32567 8.29276 6.24446 8.37809C6.16324 8.46343 6.11795 8.57672 6.11795 8.69452C6.11795 8.81232 6.16324 8.92562 6.24446 9.01095C6.32567 9.09628 6.43658 9.14713 6.55423 9.15296H11.4446C11.5623 9.14713 11.6732 9.09628 11.7544 9.01095C11.8356 8.92562 11.8809 8.81232 11.8809 8.69452C11.8809 8.57672 11.8356 8.46343 11.7544 8.37809C11.6732 8.29276 11.5634 8.24191 11.4457 8.23608ZM15.5711 3.19271V16.0301C15.5713 16.1705 15.5437 16.3096 15.4901 16.4394C15.4364 16.5692 15.3577 16.6872 15.2585 16.7865C15.1592 16.8859 15.0414 16.9647 14.9116 17.0185C14.7819 17.0723 14.6428 17.1 14.5024 17.1H3.49648C3.21303 17.1 2.94119 16.9874 2.74076 16.7869C2.54034 16.5865 2.42773 16.3147 2.42773 16.0312V3.19158C2.42759 3.05114 2.45512 2.91204 2.50877 2.78225C2.56241 2.65245 2.64111 2.5345 2.74037 2.43514C2.83962 2.33578 2.95749 2.25695 3.08723 2.20317C3.21697 2.14939 3.35604 2.12171 3.49648 2.12171H6.33711C6.66641 1.73804 7.07477 1.4301 7.53419 1.21898C7.99362 1.00786 8.49325 0.89856 8.99886 0.89856C9.50447 0.89856 10.0041 1.00786 10.4635 1.21898C10.923 1.4301 11.3313 1.73804 11.6606 2.12171H14.5001C14.6406 2.12156 14.7797 2.1491 14.9094 2.20274C15.0392 2.25638 15.1572 2.33508 15.2566 2.43434C15.3559 2.5336 15.4347 2.65147 15.4885 2.78121C15.5423 2.91095 15.57 3.05001 15.57 3.19046M6.40124 4.41333V4.56521H11.5965V4.41333C11.6037 4.06759 11.5418 3.72388 11.4145 3.40235C11.2871 3.08083 11.0969 2.78795 10.8549 2.54089C10.6129 2.29383 10.3241 2.09754 10.0053 1.96354C9.68647 1.82954 9.34412 1.76052 8.9983 1.76052C8.65247 1.76052 8.31013 1.82954 7.99132 1.96354C7.67252 2.09754 7.38366 2.29383 7.14169 2.54089C6.89971 2.78795 6.70948 3.08083 6.58214 3.40235C6.4548 3.72388 6.39404 4.06759 6.40124 4.41333ZM14.652 3.19046C14.652 3.17037 14.648 3.15047 14.6403 3.13191C14.6327 3.11335 14.6214 3.09648 14.6072 3.08227C14.593 3.06806 14.5761 3.0568 14.5575 3.04911C14.539 3.04142 14.5191 3.03746 14.499 3.03746H12.2321C12.4177 3.47171 12.5134 3.93971 12.5134 4.41333V5.02421C12.5128 5.14576 12.4642 5.26217 12.3783 5.34812C12.2923 5.43407 12.1759 5.48262 12.0544 5.48321H5.94336C5.82181 5.48262 5.7054 5.43407 5.61945 5.34812C5.5335 5.26217 5.48495 5.14576 5.48436 5.02421V4.41333C5.48436 3.94083 5.57998 3.47171 5.76561 3.03746H3.49648C3.47639 3.03746 3.4565 3.04142 3.43793 3.04911C3.41937 3.0568 3.4025 3.06806 3.3883 3.08227C3.37409 3.09648 3.36282 3.11335 3.35513 3.13191C3.34744 3.15047 3.34348 3.17037 3.34348 3.19046V16.0278C3.34348 16.0684 3.3596 16.1073 3.3883 16.136C3.41699 16.1647 3.45591 16.1808 3.49648 16.1808H14.5001C14.5407 16.1808 14.5796 16.1647 14.6083 16.136C14.637 16.1073 14.6531 16.0684 14.6531 16.0278L14.652 3.19046Z" fill="#3F3F3F"/>
</svg>
