<svg width="21" height="21" viewBox="0 0 21 21" fill="none" xmlns="http://www.w3.org/2000/svg">
<path d="M20.3438 17.2266H18.8672V7.71094H19.0312C19.1618 7.71094 19.287 7.65908 19.3793 7.56678C19.4716 7.47448 19.5234 7.34929 19.5234 7.21875C19.5234 7.08821 19.4716 6.96302 19.3793 6.87072C19.287 6.77842 19.1618 6.72656 19.0312 6.72656H14.9297V3.77344H15.0938C15.2243 3.77344 15.3495 3.72158 15.4418 3.62928C15.5341 3.53698 15.5859 3.41179 15.5859 3.28125C15.5859 3.15071 15.5341 3.02552 15.4418 2.93322C15.3495 2.84092 15.2243 2.78906 15.0938 2.78906H3.28125C3.15071 2.78906 3.02552 2.84092 2.93322 2.93322C2.84092 3.02552 2.78906 3.15071 2.78906 3.28125C2.78906 3.41179 2.84092 3.53698 2.93322 3.62928C3.02552 3.72158 3.15071 3.77344 3.28125 3.77344H3.44531V17.2266H1.96875C1.83821 17.2266 1.71302 17.2784 1.62072 17.3707C1.52842 17.463 1.47656 17.5882 1.47656 17.7188C1.47656 17.8493 1.52842 17.9745 1.62072 18.0668C1.71302 18.1591 1.83821 18.2109 1.96875 18.2109H20.3438C20.4743 18.2109 20.5995 18.1591 20.6918 18.0668C20.7841 17.9745 20.8359 17.8493 20.8359 17.7188C20.8359 17.5882 20.7841 17.463 20.6918 17.3707C20.5995 17.2784 20.4743 17.2266 20.3438 17.2266ZM17.8828 7.71094V17.2266H14.9297V7.71094H17.8828ZM4.42969 3.77344H13.9453V17.2266H11.6484V13.125C11.6484 12.9945 11.5966 12.8693 11.5043 12.777C11.412 12.6847 11.2868 12.6328 11.1562 12.6328H7.21875C7.08821 12.6328 6.96302 12.6847 6.87072 12.777C6.77842 12.8693 6.72656 12.9945 6.72656 13.125V17.2266H4.42969V3.77344ZM10.6641 17.2266H7.71094V13.6172H10.6641V17.2266ZM6.07031 6.5625C6.07031 6.43196 6.12217 6.30677 6.21447 6.21447C6.30677 6.12217 6.43196 6.07031 6.5625 6.07031H7.875C8.00554 6.07031 8.13073 6.12217 8.22303 6.21447C8.31533 6.30677 8.36719 6.43196 8.36719 6.5625C8.36719 6.69304 8.31533 6.81823 8.22303 6.91053C8.13073 7.00283 8.00554 7.05469 7.875 7.05469H6.5625C6.43196 7.05469 6.30677 7.00283 6.21447 6.91053C6.12217 6.81823 6.07031 6.69304 6.07031 6.5625ZM10.0078 6.5625C10.0078 6.43196 10.0597 6.30677 10.152 6.21447C10.2443 6.12217 10.3695 6.07031 10.5 6.07031H11.8125C11.943 6.07031 12.0682 6.12217 12.1605 6.21447C12.2528 6.30677 12.3047 6.43196 12.3047 6.5625C12.3047 6.69304 12.2528 6.81823 12.1605 6.91053C12.0682 7.00283 11.943 7.05469 11.8125 7.05469H10.5C10.3695 7.05469 10.2443 7.00283 10.152 6.91053C10.0597 6.81823 10.0078 6.69304 10.0078 6.5625ZM6.5625 10.3359C6.43196 10.3359 6.30677 10.2841 6.21447 10.1918C6.12217 10.0995 6.07031 9.97429 6.07031 9.84375C6.07031 9.71321 6.12217 9.58802 6.21447 9.49572C6.30677 9.40342 6.43196 9.35156 6.5625 9.35156H7.875C8.00554 9.35156 8.13073 9.40342 8.22303 9.49572C8.31533 9.58802 8.36719 9.71321 8.36719 9.84375C8.36719 9.97429 8.31533 10.0995 8.22303 10.1918C8.13073 10.2841 8.00554 10.3359 7.875 10.3359H6.5625ZM10.0078 9.84375C10.0078 9.71321 10.0597 9.58802 10.152 9.49572C10.2443 9.40342 10.3695 9.35156 10.5 9.35156H11.8125C11.943 9.35156 12.0682 9.40342 12.1605 9.49572C12.2528 9.58802 12.3047 9.71321 12.3047 9.84375C12.3047 9.97429 12.2528 10.0995 12.1605 10.1918C12.0682 10.2841 11.943 10.3359 11.8125 10.3359H10.5C10.3695 10.3359 10.2443 10.2841 10.152 10.1918C10.0597 10.0995 10.0078 9.97429 10.0078 9.84375Z" fill="#3F3F3F"/>
</svg>
