<svg width="18" height="18" viewBox="0 0 18 18" fill="none" xmlns="http://www.w3.org/2000/svg">
<path d="M3.86865 13.2636C3.61112 13.1093 3.40643 12.8996 3.25459 12.6344C3.10275 12.3685 3.02683 12.0707 3.02683 11.7408V7.60636L1.42948 6.66473C1.28365 6.57231 1.17529 6.46282 1.10439 6.33628C1.03348 6.20973 0.998699 6.06968 1.00004 5.91612C1.00137 5.76256 1.03683 5.6225 1.10639 5.49596C1.17596 5.36941 1.28399 5.25993 1.43048 5.16751L8.27341 1.20051C8.39515 1.1287 8.52057 1.07751 8.64967 1.04694C8.77877 1.01637 8.91121 1.00073 9.047 1.00002C9.18279 0.999312 9.31557 1.01495 9.44534 1.04694C9.5751 1.07894 9.70086 1.12977 9.8226 1.19944L17.5696 5.66445C17.7114 5.75331 17.8184 5.86457 17.8906 5.99823C17.9635 6.1326 18 6.27763 18 6.43332V12.1919C18 12.3426 17.9518 12.4691 17.8555 12.5715C17.7592 12.6739 17.6401 12.7251 17.4983 12.7251C17.3565 12.7251 17.2371 12.6739 17.1401 12.5715C17.0431 12.4691 16.9953 12.3426 16.9966 12.1919V6.51543L15.0672 7.60636V11.7408C15.0672 12.0707 14.9913 12.3685 14.8394 12.6344C14.6876 12.9003 14.4832 13.11 14.2264 13.2636L9.82661 15.7952C9.7022 15.8699 9.5751 15.9228 9.44534 15.9541C9.31557 15.9854 9.18279 16.0007 9.047 16C8.91121 15.9993 8.77843 15.984 8.64867 15.9541C8.5189 15.9243 8.39181 15.8709 8.26739 15.7942L3.86865 13.2636ZM8.81522 9.73915C8.90553 9.79318 8.9858 9.8202 9.05603 9.8202C9.12694 9.8202 9.20754 9.79318 9.29784 9.73915L15.9 5.91612L9.29784 2.11441C9.20821 2.05967 9.12794 2.0323 9.05703 2.0323C8.98613 2.0323 8.90586 2.05967 8.81623 2.11441L2.19404 5.91612L8.81522 9.73915ZM8.79616 14.892C8.88646 14.9467 8.97008 14.9741 9.047 14.9741C9.12393 14.9741 9.20754 14.9467 9.29784 14.892L13.7748 12.3209C13.8779 12.2527 13.9514 12.1741 13.9956 12.0852C14.0397 11.9964 14.0625 11.8833 14.0638 11.7461V8.19288L9.83263 10.6477C9.70755 10.7224 9.58045 10.7753 9.45135 10.8066C9.32359 10.8372 9.18881 10.8525 9.047 10.8525C8.90519 10.8525 8.77007 10.8372 8.64164 10.8066C8.51321 10.776 8.38645 10.7227 8.26137 10.6467L4.03019 8.19394V11.7472C4.03019 11.8567 4.0526 11.9629 4.09742 12.066C4.14223 12.1684 4.21615 12.2537 4.31916 12.322L8.79616 14.892Z" fill="#3F3F3F"/>
</svg>
