<svg width="18" height="18" viewBox="0 0 18 18" fill="none" xmlns="http://www.w3.org/2000/svg">
<g clip-path="url(#clip0_221_28)">
<path fill-rule="evenodd" clip-rule="evenodd" d="M9 2.0625C7.16006 2.0625 5.39548 2.79341 4.09445 4.09445C2.79341 5.39548 2.0625 7.16006 2.0625 9C2.0625 10.8399 2.79341 12.6045 4.09445 13.9056C5.39548 15.2066 7.16006 15.9375 9 15.9375C10.8399 15.9375 12.6045 15.2066 13.9056 13.9056C15.2066 12.6045 15.9375 10.8399 15.9375 9C15.9375 7.16006 15.2066 5.39548 13.9056 4.09445C12.6045 2.79341 10.8399 2.0625 9 2.0625ZM0.9375 9C0.9375 4.54725 4.54725 0.9375 9 0.9375C13.4528 0.9375 17.0625 4.54725 17.0625 9C17.0625 13.4528 13.4528 17.0625 9 17.0625C4.54725 17.0625 0.9375 13.4528 0.9375 9ZM5.10225 8.4375H7.01475C7.10809 8.10841 7.2821 7.80782 7.521 7.563L6.564 5.9055C5.76985 6.53062 5.24649 7.43718 5.10225 8.4375ZM7.53825 5.343L8.4945 7.0005C8.82632 6.91694 9.17368 6.91694 9.5055 7.0005L10.4618 5.343C9.99703 5.15653 9.50074 5.06129 9 5.0625C8.48325 5.0625 7.9905 5.16225 7.53825 5.343ZM11.4352 5.9055L10.4782 7.563C10.7137 7.8045 10.89 8.10375 10.9845 8.4375H12.897C12.7524 7.43734 12.2288 6.53106 11.4345 5.90625M12.8962 9.56325H10.9838C10.8904 9.89234 10.7164 10.1929 10.4775 10.4377L11.4345 12.0953C12.2286 11.4701 12.752 10.5636 12.8962 9.56325ZM10.4602 12.6578L9.504 11.0002C9.17222 11.0841 8.82478 11.0841 8.493 11.0002L7.53675 12.6578C7.98825 12.8385 8.48175 12.9382 8.9985 12.9382C9.51525 12.9382 10.0087 12.8385 10.461 12.6578M6.56325 12.0953L7.52025 10.4377C7.28187 10.1927 7.10816 9.89214 7.01475 9.56325H5.10225C5.24648 10.5632 5.76955 11.4694 6.56325 12.0945M8.53875 9.81675L8.5305 9.81225L8.523 9.80775C8.38274 9.72511 8.26641 9.60738 8.18547 9.46613C8.10453 9.32488 8.06177 9.16499 8.06139 9.00219C8.06101 8.8394 8.10303 8.67931 8.18331 8.53769C8.2636 8.39606 8.37937 8.27779 8.51925 8.1945L8.5305 8.1885L8.54175 8.181C8.68106 8.10254 8.83824 8.06132 8.99813 8.06132C9.15801 8.06132 9.31519 8.10254 9.4545 8.181L9.468 8.1885L9.48075 8.196C9.62026 8.27966 9.73561 8.39818 9.81544 8.53991C9.89528 8.68165 9.93687 8.84171 9.93611 9.00438C9.93535 9.16706 9.89228 9.32673 9.81113 9.46772C9.72998 9.6087 9.61353 9.72614 9.47325 9.8085L9.468 9.81225L9.462 9.816C9.32149 9.89649 9.1624 9.9389 9.00047 9.93903C8.83855 9.93916 8.67939 9.89701 8.53875 9.81675ZM3.9375 9C3.9375 7.65734 4.47087 6.36967 5.42027 5.42027C6.36967 4.47087 7.65734 3.9375 9 3.9375C10.3427 3.9375 11.6303 4.47087 12.5797 5.42027C13.5291 6.36967 14.0625 7.65734 14.0625 9C14.0625 10.3427 13.5291 11.6303 12.5797 12.5797C11.6303 13.5291 10.3427 14.0625 9 14.0625C7.65734 14.0625 6.36967 13.5291 5.42027 12.5797C4.47087 11.6303 3.9375 10.3427 3.9375 9Z" fill="#3F3F3F"/>
</g>
<defs>
<clipPath id="clip0_221_28">
<rect width="18" height="18" fill="white"/>
</clipPath>
</defs>
</svg>
