<svg width="18" height="18" viewBox="0 0 18 18" fill="none" xmlns="http://www.w3.org/2000/svg">
<path d="M15.75 11.25V9C15.75 8.11358 15.5754 7.23583 15.2362 6.41689C14.897 5.59794 14.3998 4.85382 13.773 4.22703C13.1462 3.60023 12.4021 3.10303 11.5831 2.76381C10.7642 2.42459 9.88642 2.25 9 2.25C8.11358 2.25 7.23583 2.42459 6.41689 2.76381C5.59794 3.10303 4.85382 3.60023 4.22703 4.22703C3.60023 4.85382 3.10303 5.59794 2.76381 6.41689C2.42459 7.23583 2.25 8.11358 2.25 9V11.25" stroke="#3F3F3F" stroke-width="1.125" stroke-linecap="round"/>
<path d="M2.25 11.25V10.6875H1.6875V11.25H2.25ZM2.25 11.8125H4.5V10.6875H2.25V11.8125ZM4.6875 12V14.25H5.8125V12H4.6875ZM2.8125 14.25V11.25H1.6875V14.25H2.8125ZM3.75 15.1875C3.2325 15.1875 2.8125 14.7675 2.8125 14.25H1.6875C1.6875 14.797 1.9048 15.3216 2.29159 15.7084C2.67839 16.0952 3.20299 16.3125 3.75 16.3125V15.1875ZM4.6875 14.25C4.6875 14.7675 4.2675 15.1875 3.75 15.1875V16.3125C4.29701 16.3125 4.82161 16.0952 5.20841 15.7084C5.5952 15.3216 5.8125 14.797 5.8125 14.25H4.6875ZM4.5 11.8125C4.54973 11.8125 4.59742 11.8323 4.63258 11.8674C4.66775 11.9026 4.6875 11.9503 4.6875 12H5.8125C5.8125 11.6519 5.67422 11.3181 5.42808 11.0719C5.18194 10.8258 4.8481 10.6875 4.5 10.6875V11.8125ZM15.75 11.25H16.3125V10.6875H15.75V11.25ZM13.5 11.8125H15.75V10.6875H13.5V11.8125ZM15.1875 11.25V14.25H16.3125V11.25H15.1875ZM13.3125 14.25V12H12.1875V14.25H13.3125ZM14.25 15.1875C13.7325 15.1875 13.3125 14.7675 13.3125 14.25H12.1875C12.1875 14.797 12.4048 15.3216 12.7916 15.7084C13.1784 16.0952 13.703 16.3125 14.25 16.3125V15.1875ZM15.1875 14.25C15.1875 14.7675 14.7675 15.1875 14.25 15.1875V16.3125C14.797 16.3125 15.3216 16.0952 15.7084 15.7084C16.0952 15.3216 16.3125 14.797 16.3125 14.25H15.1875ZM13.5 10.6875C13.1519 10.6875 12.8181 10.8258 12.5719 11.0719C12.3258 11.3181 12.1875 11.6519 12.1875 12H13.3125C13.3125 11.9503 13.3323 11.9026 13.3674 11.8674C13.4026 11.8323 13.4503 11.8125 13.5 11.8125V10.6875Z" fill="#3F3F3F"/>
</svg>
