<svg width="18" height="18" viewBox="0 0 18 18" fill="none" xmlns="http://www.w3.org/2000/svg">
<path d="M14.625 15.375C14.2688 8.37525 3.73125 8.37525 3.375 15.375M11.25 5.625C11.25 6.22174 11.0129 6.79403 10.591 7.21599C10.169 7.63795 9.59674 7.875 9 7.875C8.40326 7.875 7.83097 7.63795 7.40901 7.21599C6.98705 6.79403 6.75 6.22174 6.75 5.625C6.75 5.02826 6.98705 4.45597 7.40901 4.03401C7.83097 3.61205 8.40326 3.375 9 3.375C9.59674 3.375 10.169 3.61205 10.591 4.03401C11.0129 4.45597 11.25 5.02826 11.25 5.625Z" stroke="#3F3F3F" stroke-width="1.125" stroke-linecap="round" stroke-linejoin="round"/>
</svg>
